<svg xmlns="http://www.w3.org/2000/svg" xmlns:xlink="http://www.w3.org/1999/xlink" width="500" zoomAndPan="magnify" viewBox="0 0 375 374.999991" height="500" preserveAspectRatio="xMidYMid meet" version="1.0"><defs><g/><clipPath id="b8975ee6d0"><path d="M 92 116.746094 L 166 116.746094 L 166 157 L 92 157 Z M 92 116.746094 " clip-rule="nonzero"/></clipPath><clipPath id="9a66686975"><path d="M 82.152344 149.820312 L 224.617188 149.820312 L 224.617188 202.046875 L 82.152344 202.046875 Z M 82.152344 149.820312 " clip-rule="nonzero"/></clipPath></defs><rect x="-37.5" width="450" fill="#ffffff" y="-37.499999" height="449.999989" fill-opacity="1"/><rect x="-37.5" width="450" fill="#327e5a" y="-37.499999" height="449.999989" fill-opacity="1"/><g clip-path="url(#b8975ee6d0)"><path fill="#ffffff" d="M 122.933594 140.742188 C 133.199219 140.71875 143.554688 142.488281 153.511719 146.175781 L 153.511719 150.273438 C 134.476562 149.980469 117.316406 152.464844 104.421875 156.941406 L 104.421875 143.789062 L 92.5 137.796875 L 128.964844 116.746094 L 165.429688 137.796875 L 153.515625 143.789062 C 143.449219 140.9375 133.097656 139.960938 122.933594 140.742188 " fill-opacity="1" fill-rule="nonzero"/></g><g clip-path="url(#9a66686975)"><path fill="#ffffff" d="M 224.855469 160.976562 C 211.046875 157.046875 194.203125 154.738281 176.019531 154.738281 C 168.226562 154.738281 160.679688 155.160156 153.511719 155.957031 C 132.996094 158.226562 115.585938 163.53125 104.421875 170.597656 C 96.019531 175.914062 91.152344 182.226562 91.152344 189 C 91.152344 193.621094 93.417969 198.027344 97.523438 202.046875 C 87.851562 196.632812 82.152344 189.988281 82.152344 182.800781 C 82.152344 174.046875 90.617188 166.089844 104.421875 160.1875 C 117.089844 154.773438 134.257812 151.09375 153.511719 150.121094 C 156.863281 149.949219 160.277344 149.863281 163.746094 149.863281 C 188.070312 149.863281 209.90625 154.160156 224.855469 160.976562 " fill-opacity="1" fill-rule="nonzero"/></g><g fill="#ffffff" fill-opacity="1"><g transform="translate(106.288555, 199.7449)"><g><path d="M 10.515625 0 L 0.34375 -26.484375 L 6.8125 -26.484375 L 10.328125 -17.0625 L 13.515625 -8.671875 L 20.171875 -26.484375 L 26.609375 -26.484375 L 16.421875 0 Z M 10.515625 0 "/></g></g></g><g fill="#ffffff" fill-opacity="1"><g transform="translate(133.234629, 199.7449)"><g><path d="M 3.171875 0 L 3.171875 -26.484375 L 9.203125 -26.484375 L 9.203125 0 Z M 3.171875 0 "/></g></g></g><g fill="#ffffff" fill-opacity="1"><g transform="translate(145.61014, 199.7449)"><g><path d="M 12.40625 0.53125 C 10.1875 0.53125 8.273438 0.164062 6.671875 -0.5625 C 5.078125 -1.300781 3.84375 -2.34375 2.96875 -3.6875 C 2.101562 -5.039062 1.671875 -6.625 1.671875 -8.4375 L 7.5625 -8.4375 C 7.5625 -7.175781 8 -6.191406 8.875 -5.484375 C 9.75 -4.773438 10.914062 -4.421875 12.375 -4.421875 C 13.632812 -4.421875 14.628906 -4.664062 15.359375 -5.15625 C 16.097656 -5.65625 16.46875 -6.347656 16.46875 -7.234375 C 16.46875 -8.160156 16.023438 -8.914062 15.140625 -9.5 C 14.253906 -10.082031 12.878906 -10.570312 11.015625 -10.96875 C 7.910156 -11.625 5.613281 -12.617188 4.125 -13.953125 C 2.632812 -15.296875 1.890625 -17.039062 1.890625 -19.1875 C 1.890625 -21.601562 2.769531 -23.507812 4.53125 -24.90625 C 6.300781 -26.3125 8.710938 -27.015625 11.765625 -27.015625 C 13.859375 -27.015625 15.675781 -26.65625 17.21875 -25.9375 C 18.757812 -25.21875 19.953125 -24.207031 20.796875 -22.90625 C 21.640625 -21.613281 22.0625 -20.070312 22.0625 -18.28125 L 16.265625 -18.28125 C 16.265625 -19.46875 15.875 -20.398438 15.09375 -21.078125 C 14.3125 -21.753906 13.226562 -22.09375 11.84375 -22.09375 C 10.582031 -22.09375 9.585938 -21.847656 8.859375 -21.359375 C 8.128906 -20.867188 7.765625 -20.179688 7.765625 -19.296875 C 7.765625 -18.492188 8.164062 -17.8125 8.96875 -17.25 C 9.78125 -16.695312 11.191406 -16.179688 13.203125 -15.703125 C 16.515625 -14.921875 18.898438 -13.875 20.359375 -12.5625 C 21.828125 -11.25 22.5625 -9.546875 22.5625 -7.453125 C 22.5625 -4.953125 21.65625 -2.992188 19.84375 -1.578125 C 18.039062 -0.171875 15.5625 0.53125 12.40625 0.53125 Z M 12.40625 0.53125 "/></g></g></g><g fill="#ffffff" fill-opacity="1"><g transform="translate(169.869176, 199.7449)"><g><path d="M 19.5625 0 L 19.5625 -10.671875 L 9.203125 -10.671875 L 9.203125 0 L 3.171875 0 L 3.171875 -26.484375 L 9.203125 -26.484375 L 9.203125 -16.3125 L 19.5625 -16.3125 L 19.5625 -26.484375 L 25.578125 -26.484375 L 25.578125 0 Z M 19.5625 0 "/></g></g></g><g fill="#ffffff" fill-opacity="1"><g transform="translate(198.631829, 199.7449)"><g><path d="M 8.890625 0 L 0.375 -26.484375 L 6.78125 -26.484375 L 9.3125 -18.4375 L 12.109375 -9.71875 L 15.140625 -18.4375 L 17.96875 -26.484375 L 23.6875 -26.484375 L 26.53125 -18.4375 L 29.59375 -9.609375 L 32.4375 -18.4375 L 34.96875 -26.484375 L 41.328125 -26.484375 L 32.765625 0 L 26.875 0 L 20.859375 -17.140625 L 14.828125 0 Z M 8.890625 0 "/></g></g></g><g fill="#ffffff" fill-opacity="1"><g transform="translate(240.337682, 199.7449)"><g><path d="M 0.34375 0 L 10.859375 -26.484375 L 16.765625 -26.484375 L 27.28125 0 L 20.859375 0 L 19.078125 -4.578125 L 8.546875 -4.578125 L 6.78125 0 Z M 10.109375 -9.3125 L 17.5625 -9.3125 L 13.8125 -19 Z M 10.109375 -9.3125 "/></g></g></g><g fill="#ffffff" fill-opacity="1"><g transform="translate(100.276772, 215.962107)"><g><path d="M 3.609375 0 L 3.609375 -2.015625 L 1.21875 -2.015625 L 1.21875 0 L 0.65625 0 L 0.65625 -4.5 L 1.21875 -4.5 L 1.21875 -2.5625 L 3.609375 -2.5625 L 3.609375 -4.5 L 4.171875 -4.5 L 4.171875 0 Z M 3.609375 0 "/></g></g></g><g fill="#ffffff" fill-opacity="1"><g transform="translate(108.121838, 215.962107)"><g><path d="M 0.65625 0 L 0.65625 -4.5 L 1.21875 -4.5 L 1.21875 0 Z M 0.65625 0 "/></g></g></g><g fill="#ffffff" fill-opacity="1"><g transform="translate(113.017768, 215.962107)"><g><path d="M 2.65625 0.078125 C 2.332031 0.078125 2.03125 0.0195312 1.75 -0.09375 C 1.46875 -0.207031 1.222656 -0.367188 1.015625 -0.578125 C 0.816406 -0.785156 0.660156 -1.03125 0.546875 -1.3125 C 0.429688 -1.59375 0.375 -1.90625 0.375 -2.25 C 0.375 -2.582031 0.425781 -2.890625 0.53125 -3.171875 C 0.644531 -3.460938 0.804688 -3.710938 1.015625 -3.921875 C 1.222656 -4.128906 1.460938 -4.289062 1.734375 -4.40625 C 2.015625 -4.519531 2.316406 -4.578125 2.640625 -4.578125 C 2.984375 -4.578125 3.300781 -4.515625 3.59375 -4.390625 C 3.882812 -4.265625 4.132812 -4.085938 4.34375 -3.859375 C 4.5625 -3.640625 4.71875 -3.382812 4.8125 -3.09375 L 4.1875 -3.09375 C 4.050781 -3.382812 3.847656 -3.609375 3.578125 -3.765625 C 3.316406 -3.929688 3.015625 -4.015625 2.671875 -4.015625 C 2.335938 -4.015625 2.039062 -3.9375 1.78125 -3.78125 C 1.519531 -3.632812 1.316406 -3.425781 1.171875 -3.15625 C 1.023438 -2.894531 0.953125 -2.59375 0.953125 -2.25 C 0.953125 -1.90625 1.023438 -1.597656 1.171875 -1.328125 C 1.316406 -1.066406 1.519531 -0.859375 1.78125 -0.703125 C 2.039062 -0.554688 2.335938 -0.484375 2.671875 -0.484375 C 2.972656 -0.484375 3.238281 -0.539062 3.46875 -0.65625 C 3.707031 -0.78125 3.898438 -0.945312 4.046875 -1.15625 C 4.203125 -1.375 4.296875 -1.625 4.328125 -1.90625 L 2.5 -1.90625 L 2.5 -2.4375 L 4.9375 -2.4375 C 4.945312 -1.945312 4.859375 -1.507812 4.671875 -1.125 C 4.484375 -0.75 4.21875 -0.453125 3.875 -0.234375 C 3.53125 -0.0234375 3.125 0.078125 2.65625 0.078125 Z M 2.65625 0.078125 "/></g></g></g><g fill="#ffffff" fill-opacity="1"><g transform="translate(121.338292, 215.962107)"><g><path d="M 3.609375 0 L 3.609375 -2.015625 L 1.21875 -2.015625 L 1.21875 0 L 0.65625 0 L 0.65625 -4.5 L 1.21875 -4.5 L 1.21875 -2.5625 L 3.609375 -2.5625 L 3.609375 -4.5 L 4.171875 -4.5 L 4.171875 0 Z M 3.609375 0 "/></g></g></g><g fill="#ffffff" fill-opacity="1"><g transform="translate(129.183358, 215.962107)"><g><path d="M 0.65625 0 L 0.65625 -4.5 L 3.390625 -4.5 L 3.390625 -3.96875 L 1.21875 -3.96875 L 1.21875 -2.546875 L 3.21875 -2.546875 L 3.21875 -2.03125 L 1.21875 -2.03125 L 1.21875 -0.53125 L 3.453125 -0.53125 L 3.453125 0 Z M 0.65625 0 "/></g></g></g><g fill="#ffffff" fill-opacity="1"><g transform="translate(136.077504, 215.962107)"><g><path d="M 0.65625 0 L 0.65625 -4.5 L 2.375 -4.5 C 2.6875 -4.5 2.957031 -4.4375 3.1875 -4.3125 C 3.414062 -4.195312 3.59375 -4.03125 3.71875 -3.8125 C 3.851562 -3.601562 3.921875 -3.347656 3.921875 -3.046875 C 3.921875 -2.679688 3.828125 -2.378906 3.640625 -2.140625 C 3.453125 -1.910156 3.191406 -1.753906 2.859375 -1.671875 L 3.984375 0 L 3.3125 0 L 2.203125 -1.609375 L 1.21875 -1.609375 L 1.21875 0 Z M 1.21875 -2.15625 L 2.3125 -2.15625 C 2.632812 -2.15625 2.882812 -2.234375 3.0625 -2.390625 C 3.25 -2.546875 3.34375 -2.765625 3.34375 -3.046875 C 3.34375 -3.335938 3.25 -3.5625 3.0625 -3.71875 C 2.882812 -3.875 2.632812 -3.953125 2.3125 -3.953125 L 1.21875 -3.953125 Z M 1.21875 -2.15625 "/></g></g></g><g fill="#ffffff" fill-opacity="1"><g transform="translate(143.472808, 215.962107)"><g/></g></g><g fill="#ffffff" fill-opacity="1"><g transform="translate(148.086035, 215.962107)"><g><path d="M 0.65625 0 L 0.65625 -4.5 L 3.390625 -4.5 L 3.390625 -3.96875 L 1.21875 -3.96875 L 1.21875 -2.546875 L 3.21875 -2.546875 L 3.21875 -2.03125 L 1.21875 -2.03125 L 1.21875 -0.53125 L 3.453125 -0.53125 L 3.453125 0 Z M 0.65625 0 "/></g></g></g><g fill="#ffffff" fill-opacity="1"><g transform="translate(154.98018, 215.962107)"><g><path d="M 0.65625 0 L 0.65625 -4.5 L 2.203125 -4.5 C 2.671875 -4.5 3.078125 -4.398438 3.421875 -4.203125 C 3.765625 -4.015625 4.03125 -3.753906 4.21875 -3.421875 C 4.414062 -3.085938 4.515625 -2.695312 4.515625 -2.25 C 4.515625 -1.8125 4.414062 -1.421875 4.21875 -1.078125 C 4.03125 -0.742188 3.765625 -0.476562 3.421875 -0.28125 C 3.078125 -0.09375 2.671875 0 2.203125 0 Z M 1.21875 -0.546875 L 2.203125 -0.546875 C 2.546875 -0.546875 2.847656 -0.613281 3.109375 -0.75 C 3.367188 -0.894531 3.570312 -1.09375 3.71875 -1.34375 C 3.863281 -1.601562 3.9375 -1.90625 3.9375 -2.25 C 3.9375 -2.59375 3.863281 -2.890625 3.71875 -3.140625 C 3.570312 -3.398438 3.363281 -3.597656 3.09375 -3.734375 C 2.832031 -3.878906 2.53125 -3.953125 2.1875 -3.953125 L 1.21875 -3.953125 Z M 1.21875 -0.546875 "/></g></g></g><g fill="#ffffff" fill-opacity="1"><g transform="translate(162.889495, 215.962107)"><g><path d="M 2.34375 0.078125 C 1.789062 0.078125 1.363281 -0.0859375 1.0625 -0.421875 C 0.757812 -0.765625 0.609375 -1.234375 0.609375 -1.828125 L 0.609375 -4.5 L 1.15625 -4.5 L 1.15625 -1.875 C 1.15625 -1.414062 1.253906 -1.066406 1.453125 -0.828125 C 1.660156 -0.585938 1.957031 -0.46875 2.34375 -0.46875 C 3.125 -0.46875 3.515625 -0.9375 3.515625 -1.875 L 3.515625 -4.5 L 4.078125 -4.5 L 4.078125 -1.828125 C 4.078125 -1.234375 3.921875 -0.765625 3.609375 -0.421875 C 3.304688 -0.0859375 2.882812 0.078125 2.34375 0.078125 Z M 2.34375 0.078125 "/></g></g></g><g fill="#ffffff" fill-opacity="1"><g transform="translate(170.593206, 215.962107)"><g><path d="M 2.640625 0.078125 C 2.316406 0.078125 2.015625 0.0195312 1.734375 -0.09375 C 1.453125 -0.207031 1.207031 -0.367188 1 -0.578125 C 0.800781 -0.785156 0.644531 -1.03125 0.53125 -1.3125 C 0.425781 -1.59375 0.375 -1.90625 0.375 -2.25 C 0.375 -2.582031 0.425781 -2.890625 0.53125 -3.171875 C 0.644531 -3.460938 0.800781 -3.710938 1 -3.921875 C 1.207031 -4.128906 1.453125 -4.289062 1.734375 -4.40625 C 2.015625 -4.519531 2.316406 -4.578125 2.640625 -4.578125 C 2.992188 -4.578125 3.320312 -4.507812 3.625 -4.375 C 3.925781 -4.25 4.179688 -4.066406 4.390625 -3.828125 C 4.597656 -3.585938 4.753906 -3.300781 4.859375 -2.96875 L 4.25 -2.96875 C 4.132812 -3.289062 3.929688 -3.546875 3.640625 -3.734375 C 3.359375 -3.921875 3.035156 -4.015625 2.671875 -4.015625 C 2.335938 -4.015625 2.039062 -3.9375 1.78125 -3.78125 C 1.519531 -3.632812 1.316406 -3.425781 1.171875 -3.15625 C 1.023438 -2.894531 0.953125 -2.59375 0.953125 -2.25 C 0.953125 -1.90625 1.023438 -1.597656 1.171875 -1.328125 C 1.316406 -1.066406 1.519531 -0.859375 1.78125 -0.703125 C 2.039062 -0.554688 2.335938 -0.484375 2.671875 -0.484375 C 3.046875 -0.484375 3.378906 -0.582031 3.671875 -0.78125 C 3.972656 -0.976562 4.179688 -1.242188 4.296875 -1.578125 L 4.890625 -1.578125 C 4.804688 -1.242188 4.65625 -0.953125 4.4375 -0.703125 C 4.21875 -0.453125 3.953125 -0.257812 3.640625 -0.125 C 3.335938 0.0078125 3.003906 0.078125 2.640625 0.078125 Z M 2.640625 0.078125 "/></g></g></g><g fill="#ffffff" fill-opacity="1"><g transform="translate(178.855902, 215.962107)"><g><path d="M 0.109375 0 L 1.953125 -4.5 L 2.484375 -4.5 L 4.328125 0 L 3.734375 0 L 3.3125 -1.015625 L 1.125 -1.015625 L 0.71875 0 Z M 1.34375 -1.546875 L 3.109375 -1.546875 L 2.21875 -3.703125 Z M 1.34375 -1.546875 "/></g></g></g><g fill="#ffffff" fill-opacity="1"><g transform="translate(186.321885, 215.962107)"><g><path d="M 1.734375 0 L 1.734375 -3.953125 L 0.21875 -3.953125 L 0.21875 -4.5 L 3.828125 -4.5 L 3.828125 -3.953125 L 2.3125 -3.953125 L 2.3125 0 Z M 1.734375 0 "/></g></g></g><g fill="#ffffff" fill-opacity="1"><g transform="translate(193.38951, 215.962107)"><g><path d="M 0.65625 0 L 0.65625 -4.5 L 1.21875 -4.5 L 1.21875 0 Z M 0.65625 0 "/></g></g></g><g fill="#ffffff" fill-opacity="1"><g transform="translate(198.28544, 215.962107)"><g><path d="M 2.703125 0.078125 C 2.242188 0.078125 1.835938 -0.0195312 1.484375 -0.21875 C 1.140625 -0.414062 0.867188 -0.6875 0.671875 -1.03125 C 0.472656 -1.382812 0.375 -1.789062 0.375 -2.25 C 0.375 -2.707031 0.472656 -3.109375 0.671875 -3.453125 C 0.867188 -3.804688 1.140625 -4.082031 1.484375 -4.28125 C 1.835938 -4.476562 2.242188 -4.578125 2.703125 -4.578125 C 3.160156 -4.578125 3.5625 -4.476562 3.90625 -4.28125 C 4.257812 -4.082031 4.535156 -3.804688 4.734375 -3.453125 C 4.929688 -3.109375 5.03125 -2.707031 5.03125 -2.25 C 5.03125 -1.789062 4.929688 -1.382812 4.734375 -1.03125 C 4.535156 -0.6875 4.257812 -0.414062 3.90625 -0.21875 C 3.5625 -0.0195312 3.160156 0.078125 2.703125 0.078125 Z M 0.953125 -2.25 C 0.953125 -1.90625 1.023438 -1.597656 1.171875 -1.328125 C 1.316406 -1.066406 1.519531 -0.859375 1.78125 -0.703125 C 2.050781 -0.554688 2.359375 -0.484375 2.703125 -0.484375 C 3.046875 -0.484375 3.347656 -0.554688 3.609375 -0.703125 C 3.867188 -0.859375 4.070312 -1.066406 4.21875 -1.328125 C 4.363281 -1.597656 4.4375 -1.90625 4.4375 -2.25 C 4.4375 -2.601562 4.363281 -2.910156 4.21875 -3.171875 C 4.070312 -3.429688 3.867188 -3.632812 3.609375 -3.78125 C 3.347656 -3.9375 3.046875 -4.015625 2.703125 -4.015625 C 2.359375 -4.015625 2.050781 -3.9375 1.78125 -3.78125 C 1.519531 -3.632812 1.316406 -3.429688 1.171875 -3.171875 C 1.023438 -2.910156 0.953125 -2.601562 0.953125 -2.25 Z M 0.953125 -2.25 "/></g></g></g><g fill="#ffffff" fill-opacity="1"><g transform="translate(206.702344, 215.962107)"><g><path d="M 0.65625 0 L 0.65625 -4.5 L 1.1875 -4.5 L 3.671875 -0.96875 L 3.671875 -4.5 L 4.21875 -4.5 L 4.21875 0 L 3.703125 0 L 1.21875 -3.515625 L 1.21875 0 Z M 0.65625 0 "/></g></g></g><g fill="#ffffff" fill-opacity="1"><g transform="translate(214.605238, 215.962107)"><g/></g></g><g fill="#ffffff" fill-opacity="1"><g transform="translate(219.218464, 215.962107)"><g><path d="M 0.65625 0 L 0.65625 -4.5 L 1.21875 -4.5 L 1.21875 0 Z M 0.65625 0 "/></g></g></g><g fill="#ffffff" fill-opacity="1"><g transform="translate(224.114394, 215.962107)"><g><path d="M 0.65625 0 L 0.65625 -4.5 L 1.1875 -4.5 L 3.671875 -0.96875 L 3.671875 -4.5 L 4.21875 -4.5 L 4.21875 0 L 3.703125 0 L 1.21875 -3.515625 L 1.21875 0 Z M 0.65625 0 "/></g></g></g><g fill="#ffffff" fill-opacity="1"><g transform="translate(232.017288, 215.962107)"><g><path d="M 2.15625 0.078125 C 1.789062 0.078125 1.476562 0.0195312 1.21875 -0.09375 C 0.957031 -0.21875 0.753906 -0.390625 0.609375 -0.609375 C 0.460938 -0.828125 0.390625 -1.082031 0.390625 -1.375 L 0.953125 -1.375 C 0.960938 -1.09375 1.078125 -0.867188 1.296875 -0.703125 C 1.515625 -0.535156 1.800781 -0.453125 2.15625 -0.453125 C 2.46875 -0.453125 2.71875 -0.515625 2.90625 -0.640625 C 3.09375 -0.765625 3.1875 -0.9375 3.1875 -1.15625 C 3.1875 -1.375 3.09375 -1.546875 2.90625 -1.671875 C 2.726562 -1.796875 2.4375 -1.90625 2.03125 -2 C 1.476562 -2.132812 1.070312 -2.300781 0.8125 -2.5 C 0.5625 -2.707031 0.4375 -2.988281 0.4375 -3.34375 C 0.4375 -3.71875 0.578125 -4.015625 0.859375 -4.234375 C 1.148438 -4.460938 1.546875 -4.578125 2.046875 -4.578125 C 2.546875 -4.578125 2.941406 -4.453125 3.234375 -4.203125 C 3.535156 -3.953125 3.6875 -3.609375 3.6875 -3.171875 L 3.125 -3.171875 C 3.125 -3.441406 3.023438 -3.65625 2.828125 -3.8125 C 2.628906 -3.96875 2.367188 -4.046875 2.046875 -4.046875 C 1.722656 -4.046875 1.46875 -3.976562 1.28125 -3.84375 C 1.101562 -3.71875 1.015625 -3.550781 1.015625 -3.34375 C 1.015625 -3.15625 1.097656 -3 1.265625 -2.875 C 1.429688 -2.75 1.734375 -2.632812 2.171875 -2.53125 C 2.742188 -2.382812 3.148438 -2.203125 3.390625 -1.984375 C 3.640625 -1.773438 3.765625 -1.507812 3.765625 -1.1875 C 3.765625 -0.789062 3.617188 -0.476562 3.328125 -0.25 C 3.035156 -0.03125 2.644531 0.078125 2.15625 0.078125 Z M 2.15625 0.078125 "/></g></g></g><g fill="#ffffff" fill-opacity="1"><g transform="translate(239.194137, 215.962107)"><g><path d="M 1.734375 0 L 1.734375 -3.953125 L 0.21875 -3.953125 L 0.21875 -4.5 L 3.828125 -4.5 L 3.828125 -3.953125 L 2.3125 -3.953125 L 2.3125 0 Z M 1.734375 0 "/></g></g></g><g fill="#ffffff" fill-opacity="1"><g transform="translate(246.261754, 215.962107)"><g><path d="M 0.65625 0 L 0.65625 -4.5 L 1.21875 -4.5 L 1.21875 0 Z M 0.65625 0 "/></g></g></g><g fill="#ffffff" fill-opacity="1"><g transform="translate(251.157692, 215.962107)"><g><path d="M 1.734375 0 L 1.734375 -3.953125 L 0.21875 -3.953125 L 0.21875 -4.5 L 3.828125 -4.5 L 3.828125 -3.953125 L 2.3125 -3.953125 L 2.3125 0 Z M 1.734375 0 "/></g></g></g><g fill="#ffffff" fill-opacity="1"><g transform="translate(258.225326, 215.962107)"><g><path d="M 2.34375 0.078125 C 1.789062 0.078125 1.363281 -0.0859375 1.0625 -0.421875 C 0.757812 -0.765625 0.609375 -1.234375 0.609375 -1.828125 L 0.609375 -4.5 L 1.15625 -4.5 L 1.15625 -1.875 C 1.15625 -1.414062 1.253906 -1.066406 1.453125 -0.828125 C 1.660156 -0.585938 1.957031 -0.46875 2.34375 -0.46875 C 3.125 -0.46875 3.515625 -0.9375 3.515625 -1.875 L 3.515625 -4.5 L 4.078125 -4.5 L 4.078125 -1.828125 C 4.078125 -1.234375 3.921875 -0.765625 3.609375 -0.421875 C 3.304688 -0.0859375 2.882812 0.078125 2.34375 0.078125 Z M 2.34375 0.078125 "/></g></g></g><g fill="#ffffff" fill-opacity="1"><g transform="translate(265.929036, 215.962107)"><g><path d="M 1.734375 0 L 1.734375 -3.953125 L 0.21875 -3.953125 L 0.21875 -4.5 L 3.828125 -4.5 L 3.828125 -3.953125 L 2.3125 -3.953125 L 2.3125 0 Z M 1.734375 0 "/></g></g></g><g fill="#ffffff" fill-opacity="1"><g transform="translate(272.99667, 215.962107)"><g><path d="M 0.65625 0 L 0.65625 -4.5 L 3.390625 -4.5 L 3.390625 -3.96875 L 1.21875 -3.96875 L 1.21875 -2.546875 L 3.21875 -2.546875 L 3.21875 -2.03125 L 1.21875 -2.03125 L 1.21875 -0.53125 L 3.453125 -0.53125 L 3.453125 0 Z M 0.65625 0 "/></g></g></g></svg>